M48
;DRILL file {Pcbnew (2013-07-07 BZR 4022)-stable} date 3/1/2015 4:30:00 PM
;FORMAT={-:-/ absolute / metric / decimal}
FMAT,2
METRIC,TZ
T1C0.001
T2C0.250
T3C0.500
T4C0.600
T5C0.813
T6C0.950
T7C1.000
T8C1.016
T9C1.143
T10C3.048
%
G90
G05
M71
T1
X146.05Y-181.61
T2
X70.485Y-70.835
X70.485Y-72.835
X70.485Y-74.835
X70.485Y-76.835
X72.485Y-70.835
X72.485Y-72.835
X72.485Y-74.835
X72.485Y-76.835
T3
X45.052Y-146.162
X46.322Y-143.963
X47.251Y-147.432
X47.592Y-141.763
X48.521Y-145.233
X49.451Y-148.702
X49.791Y-143.033
X50.721Y-146.503
X51.991Y-144.303
X52.921Y-147.773
X54.191Y-145.573
X55.12Y-149.043
X56.39Y-146.843
X57.32Y-150.313
X58.59Y-148.113
X59.52Y-151.583
X60.79Y-149.383
X61.72Y-152.853
X62.99Y-150.653
X63.919Y-154.123
X65.189Y-151.923
X81.28Y-50.8
X81.28Y-53.34
X81.28Y-58.42
X81.28Y-60.96
X81.28Y-66.04
X81.28Y-68.58
X149.192Y-154.463
X150.462Y-156.663
X151.391Y-153.193
X151.732Y-158.862
X152.661Y-155.393
X153.591Y-151.923
X153.931Y-157.592
X154.861Y-154.123
X155.791Y-150.653
X156.131Y-156.322
X156.21Y-59.69
X156.21Y-62.23
X157.061Y-152.853
X157.99Y-149.383
X159.26Y-151.583
X160.19Y-148.113
X161.46Y-150.313
X162.39Y-146.843
X163.66Y-149.043
X164.59Y-145.573
X165.86Y-147.773
X166.789Y-144.303
X168.059Y-146.503
T4
X107.38Y-168.18
X109.76Y-168.18
X112.3Y-168.18
X114.84Y-168.18
X117.38Y-168.18
X144.78Y-171.45
X147.32Y-171.45
X149.86Y-171.45
X152.4Y-171.45
T5
X30.48Y-114.3
X30.48Y-127.
X35.56Y-114.3
X35.56Y-127.
X44.45Y-121.92
X46.99Y-121.92
X53.34Y-46.99
X53.34Y-54.61
X53.34Y-59.69
X53.34Y-62.23
X63.5Y-46.99
X63.5Y-54.61
X63.5Y-59.69
X63.5Y-62.23
X113.03Y-95.25
X113.03Y-102.87
X115.57Y-95.25
X115.57Y-102.87
X118.11Y-95.25
X118.11Y-102.87
X120.65Y-95.25
X120.65Y-102.87
X123.19Y-95.25
X123.19Y-102.87
X125.73Y-95.25
X125.73Y-102.87
X128.27Y-95.25
X128.27Y-102.87
X137.16Y-92.71
X139.7Y-92.71
X181.61Y-113.03
X182.88Y-120.65
X182.88Y-133.35
X184.15Y-113.03
X187.96Y-120.65
X187.96Y-133.35
T6
X52.07Y-135.382
X59.436Y-154.178
X61.214Y-128.016
X61.468Y-135.128
X67.056Y-145.288
X69.85Y-86.36
X71.12Y-154.94
X72.898Y-141.986
X74.676Y-130.81
X74.676Y-143.256
X74.676Y-169.164
X77.978Y-75.311
X78.74Y-124.714
X79.756Y-142.748
X81.28Y-121.666
X83.693Y-91.567
X84.836Y-137.668
X92.456Y-119.126
X94.742Y-92.075
X95.25Y-113.284
X97.536Y-131.572
X99.314Y-115.316
X102.362Y-133.858
X103.632Y-129.286
X106.68Y-133.35
X108.712Y-126.746
X108.966Y-137.414
X108.966Y-145.288
X116.586Y-130.556
X121.92Y-111.76
X124.968Y-111.506
X144.272Y-153.67
X166.71Y-159.555
X173.99Y-132.334
X200.66Y-20.32
X200.66Y-22.86
X200.66Y-25.4
X200.66Y-27.94
X200.66Y-30.48
X200.66Y-33.02
X203.2Y-20.32
X203.2Y-22.86
X203.2Y-25.4
X203.2Y-27.94
X203.2Y-30.48
X203.2Y-33.02
X205.74Y-20.32
X205.74Y-22.86
X205.74Y-25.4
X205.74Y-27.94
X205.74Y-30.48
X205.74Y-33.02
X208.28Y-20.32
X208.28Y-22.86
X208.28Y-25.4
X208.28Y-27.94
X208.28Y-30.48
X208.28Y-33.02
T7
X72.481Y-106.273
X75.781Y-108.178
X79.08Y-110.083
X82.38Y-111.988
X85.679Y-113.893
X88.979Y-115.798
X89.1Y-96.44
X89.1Y-106.68
X91.6Y-96.44
X91.6Y-106.68
X94.1Y-96.44
X94.1Y-106.68
X95.885Y-139.7
X96.6Y-96.44
X96.6Y-106.68
X99.1Y-96.44
X99.1Y-106.68
X101.6Y-96.44
X101.6Y-106.68
X103.505Y-139.7
X116.205Y-139.7
X123.825Y-139.7
X130.901Y-115.163
X134.201Y-113.258
X137.5Y-111.353
X140.8Y-109.448
X144.099Y-107.543
X147.399Y-105.638
T8
X46.99Y-110.49
X46.99Y-113.03
X46.99Y-115.57
X61.3Y-168.105
X62.57Y-165.905
X63.5Y-169.375
X64.77Y-167.175
X65.7Y-170.645
X66.97Y-168.445
X108.585Y-119.38
X108.585Y-121.92
X111.125Y-119.38
X111.125Y-121.92
X113.665Y-119.38
X113.665Y-121.92
X166.71Y-159.555
X167.98Y-161.755
X168.91Y-158.285
X170.18Y-160.485
X171.11Y-157.015
X172.38Y-159.215
X175.26Y-113.03
X175.26Y-115.57
X175.26Y-118.11
T9
X87.63Y-168.91
X90.17Y-168.91
X92.71Y-168.91
X127.Y-168.91
X129.54Y-168.91
X132.08Y-168.91
T10
X40.652Y-143.622
X62.242Y-106.227
X71.745Y-80.555
X71.845Y-39.555
X72.548Y-162.037
X90.17Y-152.4
X94.138Y-124.642
X125.742Y-124.007
X129.54Y-152.4
X147.332Y-161.402
X148.045Y-39.555
X148.045Y-81.055
X157.638Y-105.592
X179.228Y-142.987
T0
M30
