  0
SECTION
  2
HEADER
  9
$ANGBASE
  50
0.0
  9
$ANGDIR
  70
  1
  9
$MEASUREMENT
  70
0
  0
ENDSEC
  0
SECTION
  2
TABLES
  0
TABLE
  2
LTYPE
  70
1
  0
LTYPE
  2
CONTINUOUS
  70
0
  3
Solid line
  72
65
  73
0
  40
0.0
  0
ENDTAB
  0
TABLE
  2
STYLE
  70
4
  0
STYLE
  2
KICAD
  70
0
  40
0
  41
1
  42
1
  50
0
  71
0
  3
isocp.shx
  0
STYLE
  2
KICADB
  70
0
  40
0
  41
1
  42
1
  50
0
  71
0
  3
isocp.shx
  0
STYLE
  2
KICADI
  70
0
  40
0
  41
1
  42
1
  50
15
  71
0
  3
isocp.shx
  0
STYLE
  2
KICADBI
  70
0
  40
0
  41
1
  42
1
  50
15
  71
0
  3
isocp.shx
  0
ENDTAB
  0
TABLE
  2
LAYER
  70
24
  0
LAYER
  2
BLACK
  70
0
  62
250
  6
CONTINUOUS
  0
LAYER
  2
BLUE
  70
0
  62
5
  6
CONTINUOUS
  0
LAYER
  2
GREEN
  70
0
  62
3
  6
CONTINUOUS
  0
LAYER
  2
CYAN
  70
0
  62
4
  6
CONTINUOUS
  0
LAYER
  2
RED
  70
0
  62
1
  6
CONTINUOUS
  0
LAYER
  2
MAGENTA
  70
0
  62
6
  6
CONTINUOUS
  0
LAYER
  2
BROWN
  70
0
  62
54
  6
CONTINUOUS
  0
LAYER
  2
LIGHTGRAY
  70
0
  62
9
  6
CONTINUOUS
  0
LAYER
  2
DARKGRAY
  70
0
  62
8
  6
CONTINUOUS
  0
LAYER
  2
LIGHTBLUE
  70
0
  62
171
  6
CONTINUOUS
  0
LAYER
  2
LIGHTGREEN
  70
0
  62
91
  6
CONTINUOUS
  0
LAYER
  2
LIGHTCYAN
  70
0
  62
131
  6
CONTINUOUS
  0
LAYER
  2
LIGHTRED
  70
0
  62
11
  6
CONTINUOUS
  0
LAYER
  2
LIGHTMAGENTA
  70
0
  62
221
  6
CONTINUOUS
  0
LAYER
  2
YELLOW
  70
0
  62
2
  6
CONTINUOUS
  0
LAYER
  2
WHITE
  70
0
  62
7
  6
CONTINUOUS
  0
LAYER
  2
DARKDARKGRAY
  70
0
  62
251
  6
CONTINUOUS
  0
LAYER
  2
DARKBLUE
  70
0
  62
178
  6
CONTINUOUS
  0
LAYER
  2
DARKGREEN
  70
0
  62
98
  6
CONTINUOUS
  0
LAYER
  2
DARKCYAN
  70
0
  62
138
  6
CONTINUOUS
  0
LAYER
  2
DARKRED
  70
0
  62
18
  6
CONTINUOUS
  0
LAYER
  2
DARKMAGENTA
  70
0
  62
228
  6
CONTINUOUS
  0
LAYER
  2
DARKBROWN
  70
0
  62
58
  6
CONTINUOUS
  0
LAYER
  2
LIGHTYELLOW
  70
0
  62
51
  6
CONTINUOUS
  0
ENDTAB
  0
ENDSEC
  0
SECTION
  2
ENTITIES
0
LINE
8
BLACK
10
10.21
20
-213.36
11
10.21
21
-15.24
0
LINE
8
BLACK
10
10.11
20
-213.36
11
10.11
21
-15.24
0
ARC
8
BLACK
10
10.16
20
-15.24
40
0.05
50
360
51
540
0
ARC
8
BLACK
10
10.16
20
-213.36
40
0.05
50
180
51
360
0
LINE
8
BLACK
10
10.16
20
-213.41
11
213.36
21
-213.41
0
LINE
8
BLACK
10
10.16
20
-213.31
11
213.36
21
-213.31
0
ARC
8
BLACK
10
213.36
20
-213.36
40
0.05
50
270
51
450
0
ARC
8
BLACK
10
10.16
20
-213.36
40
0.05
50
90
51
270
0
LINE
8
BLACK
10
213.41
20
-213.36
11
213.41
21
-15.24
0
LINE
8
BLACK
10
213.31
20
-213.36
11
213.31
21
-15.24
0
ARC
8
BLACK
10
213.36
20
-15.24
40
0.05
50
360
51
540
0
ARC
8
BLACK
10
213.36
20
-213.36
40
0.05
50
180
51
360
0
LINE
8
BLACK
10
10.16
20
-15.29
11
213.36
21
-15.29
0
LINE
8
BLACK
10
10.16
20
-15.19
11
213.36
21
-15.19
0
ARC
8
BLACK
10
213.36
20
-15.24
40
0.05
50
270
51
450
0
ARC
8
BLACK
10
10.16
20
-15.24
40
0.05
50
90
51
270
0
CIRCLE
8
BLACK
10
114.3
20
-60.96
40
0.001666
0
LINE
8
BLACK
10
114.298
20
-61.01
11
114.303
21
-61.01
0
LINE
8
BLACK
10
114.298
20
-60.91
11
114.303
21
-60.91
0
ARC
8
BLACK
10
114.303
20
-60.96
40
0.05
50
270
51
450
0
ARC
8
BLACK
10
114.298
20
-60.96
40
0.05
50
90
51
270
0
LINE
8
BLACK
10
114.35
20
-60.9625
11
114.35
21
-60.9575
0
LINE
8
BLACK
10
114.25
20
-60.9625
11
114.25
21
-60.9575
0
ARC
8
BLACK
10
114.3
20
-60.9575
40
0.05
50
360
51
540
0
ARC
8
BLACK
10
114.3
20
-60.9625
40
0.05
50
180
51
360
0
CIRCLE
8
BLACK
10
213.36
20
-55.88
40
0.001666
0
LINE
8
BLACK
10
213.358
20
-55.93
11
213.363
21
-55.93
0
LINE
8
BLACK
10
213.358
20
-55.83
11
213.363
21
-55.83
0
ARC
8
BLACK
10
213.363
20
-55.88
40
0.05
50
270
51
450
0
ARC
8
BLACK
10
213.358
20
-55.88
40
0.05
50
90
51
270
0
LINE
8
BLACK
10
213.41
20
-55.8825
11
213.41
21
-55.8775
0
LINE
8
BLACK
10
213.31
20
-55.8825
11
213.31
21
-55.8775
0
ARC
8
BLACK
10
213.36
20
-55.8775
40
0.05
50
360
51
540
0
ARC
8
BLACK
10
213.36
20
-55.8825
40
0.05
50
180
51
360
  0
ENDSEC
  0
EOF
